<svg width="298" height="164" viewBox="0 0 298 164" fill="none" xmlns="http://www.w3.org/2000/svg">
<path fill-rule="evenodd" clip-rule="evenodd" d="M152.974 150H150.702V163.999H161.373L162.82 161.713H152.974V150Z" fill="#9B9BA0"/>
<path fill-rule="evenodd" clip-rule="evenodd" d="M121.822 150.698L113.488 163.999H116.24L118.755 159.981H124.123L125.535 157.695H120.167L123.091 153.086L129.942 163.999H132.694L124.301 150.662C123.785 149.797 122.403 149.797 121.822 150.698Z" fill="#9B9BA0"/>
<path fill-rule="evenodd" clip-rule="evenodd" d="M137.967 152.286H147.523L148.934 150L137.902 150.006C134.064 150.006 131.537 153.14 131.537 157.003C131.537 160.865 134.064 163.999 137.902 163.999L147.232 163.987L148.691 161.719H137.967C135.381 161.719 133.868 159.606 133.868 157.003C133.863 154.4 135.381 152.286 137.967 152.286Z" fill="#9B9BA0"/>
<path fill-rule="evenodd" clip-rule="evenodd" d="M89.2106 150.006H79.3644C75.5268 150.006 73 153.141 73 157.003C73 160.866 75.5268 164 79.3644 164H89.2106C93.0483 164 95.5751 160.866 95.5751 157.003C95.5751 153.141 93.0483 150.006 89.2106 150.006ZM89.2106 161.719H79.3644C76.7783 161.719 75.2658 159.606 75.2658 157.003C75.2658 154.4 76.7783 152.287 79.3644 152.287H89.2106C91.7967 152.287 93.3093 154.4 93.3093 157.003C93.3152 159.606 91.7967 161.719 89.2106 161.719Z" fill="#9B9BA0"/>
<path fill-rule="evenodd" clip-rule="evenodd" d="M169.315 152.286H178.87L180.282 150L169.25 150.006C165.412 150.006 162.885 153.14 162.885 157.003C162.885 160.865 165.412 163.999 169.25 163.999L178.58 163.987L180.039 161.719H169.315C167.108 161.719 165.691 160.179 165.323 158.113H177.358L178.805 155.827H165.329C165.714 153.797 167.138 152.286 169.315 152.286Z" fill="#9B9BA0"/>
<path fill-rule="evenodd" clip-rule="evenodd" d="M108.523 158.316C110.801 158.316 112.652 156.459 112.652 154.161C112.652 151.869 110.807 150.006 108.523 150.006L96.9393 150V163.999H99.4898V152.286H108.529C109.555 152.286 110.392 153.128 110.392 154.161C110.392 155.194 109.555 156.036 108.529 156.036H101.281L109.455 163.987H112.741L106.886 158.322L108.523 158.316Z" fill="#9B9BA0"/>
<path d="M275.96 121.085C283.032 120.003 290.117 118.983 297.202 118C297.207 124.21 297.202 130.415 297.207 136.625C290.126 136.651 283.045 136.759 275.96 136.782C275.955 131.546 275.955 126.315 275.96 121.085Z" fill="#9B9BA0"/>
<path d="M258 123.59C263.325 122.768 268.673 122.059 274.02 121.39C274.025 126.54 274.025 131.685 274.029 136.836C268.686 136.831 263.343 136.912 258 136.898V123.59Z" fill="#9B9BA0"/>
<path d="M258 138.519C263.339 138.501 268.677 138.586 274.016 138.577C274.016 143.741 274.029 148.904 274.02 154.068C268.686 153.278 263.343 152.586 258 151.863V138.519Z" fill="#9B9BA0"/>
<path d="M275.929 138.726C283.023 138.726 290.113 138.726 297.202 138.726C297.211 144.918 297.202 151.11 297.202 157.306C290.13 156.246 283.045 155.263 275.96 154.302C275.951 149.112 275.938 143.921 275.929 138.726Z" fill="#9B9BA0"/>
<path fill-rule="evenodd" clip-rule="evenodd" d="M36.8328 148.84H0V112.84H72.8164L36.8328 148.84ZM35.931 119.637H43.0429C49.8363 119.637 53.1269 122.079 52.9146 127.389C52.9146 132.167 49.624 135.035 43.9982 135.035H41.663V141.937H31.0482L29.9868 138.645C28.9253 138.964 27.6515 139.176 26.2716 139.176C24.8917 139.176 23.6179 138.964 22.4503 138.539L21.3889 141.831H14.9139L15.6269 139.997C15.6457 139.978 15.6569 139.954 15.6569 139.92L15.6269 139.997C15.61 140.014 15.5869 140.029 15.5603 140.045C15.5257 140.066 15.4852 140.092 15.4446 140.132C13.8524 141.513 11.8356 142.256 9.28809 142.256H8.96965C6.10367 142.256 3.34385 141.513 0.902463 140.132L3.13155 135.778C5.57294 137.159 7.059 137.477 9.07579 137.477C10.1373 137.477 10.8803 137.265 11.411 136.734C11.6233 136.415 11.8356 135.99 11.8356 135.566C11.8356 134.398 10.2434 133.867 8.22661 133.229L8.2266 133.229C6.6344 132.698 4.72376 132.061 3.34385 130.999C1.64549 129.725 0.902463 128.238 0.902463 126.008C0.902463 124.415 1.53935 122.929 2.60082 121.867C4.19302 120.167 6.74055 119.212 9.81882 119.212C12.3664 119.212 15.5508 119.955 17.886 121.123L15.5508 125.477C13.1094 124.309 11.8356 124.203 10.3496 124.097C8.12047 123.99 7.059 124.734 7.059 125.583C7.059 126.539 9.07579 127.495 10.9864 128.132L11.0542 128.154C14.0147 129.106 17.6777 130.283 18.2044 133.867L23.5118 119.637H29.6683L35.931 136.628V119.637ZM24.1487 133.76C24.8917 134.079 25.6347 134.185 26.4839 134.185C27.3331 134.185 28.0761 134.079 28.6069 133.867L26.3778 126.645L24.1487 133.76ZM41.8753 130.044H43.4675C45.5904 130.044 47.2888 129.406 47.2888 127.176C47.2888 125.052 45.5904 124.309 43.4675 124.309H41.8753V130.044Z" fill="url(#paint0_linear)"/>
<path d="M68.471 11.5689H59.4003L59.9639 10.0058H68.471V11.5689Z" fill="#9B9BA0"/>
<path d="M44.2979 10.0058H52.7178L53.2698 11.5747C53.2756 11.5747 44.3037 11.5747 44.3037 11.5747C44.3037 11.5689 44.2979 10.0058 44.2979 10.0058Z" fill="#9B9BA0"/>
<path d="M37.6154 10.0058C39.0041 10.1395 40.207 10.6334 41.2355 11.5689H25.9762V10L37.6154 10.0058Z" fill="#9B9BA0"/>
<path d="M24.599 10.0056H14V11.5687H24.599V10.0056Z" fill="#9B9BA0"/>
<path d="M68.471 14.5034H58.3659C58.3659 14.5034 58.918 12.946 58.9122 12.946H68.471V14.5034Z" fill="#9B9BA0"/>
<path d="M54.31 14.5034H44.2979V12.946H53.7637L54.31 14.5034Z" fill="#9B9BA0"/>
<path d="M42.4209 12.946C42.6243 13.4574 42.8626 13.899 42.8626 14.5034H25.9762V12.946H42.4209Z" fill="#9B9BA0"/>
<path d="M24.599 12.946H14V14.5034H24.599V12.946Z" fill="#9B9BA0"/>
<path d="M57.3316 17.444L57.8836 15.8809H65.4726V17.4382L57.3316 17.444Z" fill="#9B9BA0"/>
<path d="M54.7981 15.8809L55.3501 17.444H47.2847V15.8809H54.7981Z" fill="#9B9BA0"/>
<path d="M42.9962 15.8809C42.9962 16.4155 42.9265 16.9733 42.7754 17.444H38.15V15.8809H42.9962Z" fill="#9B9BA0"/>
<path d="M21.5134 15.8863H16.9577V17.4436H21.5134V15.8863Z" fill="#9B9BA0"/>
<path d="M33.5942 15.8809H29.0443V17.444H33.5942V15.8809Z" fill="#9B9BA0"/>
<path d="M51.7648 19.1286V20.314H47.2847V18.7567H55.8208L56.3496 20.2094L56.861 18.7567H65.4669V20.314H61.0099V19.1286L60.5974 20.314H52.1774L51.7648 19.1286Z" fill="#9B9BA0"/>
<path d="M29.0443 18.7625H42.1013C41.8166 19.2855 41.2994 19.9189 40.8055 20.3198H29.0443C29.0443 20.314 29.0443 18.7625 29.0443 18.7625Z" fill="#9B9BA0"/>
<path d="M21.5134 18.7625H16.9577V20.3198H21.5134V18.7625Z" fill="#9B9BA0"/>
<path d="M65.4668 21.697H61.0099V23.2543H65.4668V21.697Z" fill="#9B9BA0"/>
<path d="M51.7648 21.697H47.2847V23.2543H51.7648C51.7648 23.2485 51.7707 21.697 51.7648 21.697Z" fill="#9B9BA0"/>
<path d="M60.1092 21.697C60.0859 21.697 59.5862 23.2543 59.5688 23.2543H53.2175C53.2117 23.2543 52.6597 21.6912 52.6597 21.697H60.1092Z" fill="#9B9BA0"/>
<path d="M29.0443 21.6915H40.7823C41.3169 22.139 41.805 22.691 42.1827 23.2488C42.2059 23.2488 29.0443 23.2488 29.0443 23.2488C29.0443 23.2488 29.0443 21.6973 29.0443 21.6915Z" fill="#9B9BA0"/>
<path d="M21.5134 23.2488V21.6915H16.9635V23.2488H21.5134Z" fill="#9B9BA0"/>
<path d="M65.4668 24.626H61.0099V26.1833H65.4668V24.626Z" fill="#9B9BA0"/>
<path d="M51.7648 24.626H47.2847V26.1833H51.7648V24.626Z" fill="#9B9BA0"/>
<path d="M58.5228 26.1891C58.5228 26.1833 59.0749 24.626 59.0807 24.626H53.6824C53.6708 24.626 54.2344 26.1833 54.2344 26.1833C54.2344 26.1833 58.5228 26.1949 58.5228 26.1891Z" fill="#9B9BA0"/>
<path d="M29.0443 26.1833C29.0443 26.1891 29.0443 24.626 29.0443 24.626H33.6582C33.6582 24.626 33.664 26.1833 33.6582 26.1833H29.0443Z" fill="#9B9BA0"/>
<path d="M42.8335 24.626C43.0543 25.0967 43.0775 25.6545 43.124 26.1891H38.2313V24.626H42.8335Z" fill="#9B9BA0"/>
<path d="M21.5134 24.626H16.9635V26.1833H21.5134V24.626Z" fill="#9B9BA0"/>
<path d="M68.4652 27.5026H61.0099V29.0599H68.4652V27.5026Z" fill="#9B9BA0"/>
<path d="M51.7648 27.5026H44.2979V29.0599H51.7648V27.5026Z" fill="#9B9BA0"/>
<path d="M57.5234 29.0599H55.2455L54.6993 27.5026H58.0463L57.5234 29.0599Z" fill="#9B9BA0"/>
<path d="M14 27.5026V29.0599H24.5932C24.599 29.0599 24.5874 27.5026 24.5932 27.5026C24.599 27.5026 13.9884 27.5026 14 27.5026Z" fill="#9B9BA0"/>
<path d="M42.9265 27.5026C42.8161 28.014 42.7115 28.6416 42.3396 29.0599H42.2001H25.9762V27.5026H42.9265Z" fill="#9B9BA0"/>
<path d="M56.489 31.9943H56.2798L55.7452 30.437H57.0353L56.489 31.9943Z" fill="#9B9BA0"/>
<path d="M68.4652 30.437H61.0099V32.0001H68.4652V30.437Z" fill="#9B9BA0"/>
<path d="M25.9762 31.9943V30.437C25.9762 30.437 41.282 30.437 41.3227 30.437C40.2942 31.419 38.8879 31.9769 37.3655 31.9943H25.9762Z" fill="#9B9BA0"/>
<path d="M51.7648 30.437H44.2979V32.0001H51.7648V30.437Z" fill="#9B9BA0"/>
<path d="M24.5932 30.4428C24.5932 30.4428 24.5874 31.9943 24.5932 31.9943C24.599 31.9943 14.0058 32.0001 14 31.9943V30.437C14 30.437 24.5874 30.4428 24.5932 30.4428Z" fill="#9B9BA0"/>
<path fill-rule="evenodd" clip-rule="evenodd" d="M268.962 12.8537C268.962 14.9821 267.123 16.7074 264.855 16.7074C262.587 16.7074 260.748 14.9821 260.748 12.8537C260.748 10.7254 262.587 9 264.855 9C267.123 9 268.962 10.7254 268.962 12.8537ZM255.287 19.3233C260.287 19.3233 264.435 22.9123 265.121 27.5654H272C271.688 23.9092 270.12 20.5014 267.498 17.8137C265.82 18.6403 263.755 18.6561 262.002 17.6776C260.247 16.6978 259.229 14.9603 259.131 13.1394C257.87 12.8554 256.581 12.7124 255.287 12.7131C252.778 12.7131 250.352 13.2429 248.146 14.2473L251.59 20.0143C252.769 19.5562 254.023 19.3219 255.287 19.3233ZM240.214 28.9437C240.214 31.072 238.375 32.7974 236.107 32.7974C233.839 32.7974 232 31.072 232 28.9437C232 26.8153 233.839 25.09 236.107 25.09C238.375 25.09 240.214 26.8153 240.214 28.9437ZM268.962 44.9777C268.962 47.1061 267.123 48.8315 264.855 48.8315C262.587 48.8315 260.748 47.1061 260.748 44.9777C260.748 42.8494 262.587 41.124 264.855 41.124C267.123 41.124 268.962 42.8494 268.962 44.9777ZM255.289 38.5094C260.289 38.5094 264.437 34.9192 265.123 30.2657H272C271.688 33.9196 270.122 37.3263 267.503 40.0135C265.824 39.1853 263.759 39.1695 262.005 40.1487C260.25 41.1285 259.231 42.8686 259.135 44.691C257.889 44.9717 256.6 45.118 255.288 45.118C252.778 45.118 250.352 44.5881 248.146 43.5835L251.59 37.8177C252.734 38.2636 253.982 38.5094 255.289 38.5094ZM245.371 28.944C245.371 25.8864 246.854 23.1584 249.159 21.3998L245.727 15.6385C244.917 16.1873 244.155 16.8059 243.452 17.4872C241.466 19.412 240.041 21.7362 239.257 24.2726C240.837 25.264 241.882 26.9847 241.882 28.944C241.882 30.903 240.836 32.6242 239.257 33.6151C240.041 36.1517 241.465 38.4756 243.451 40.4006C244.154 41.0816 244.915 41.7001 245.725 42.2488L249.157 36.487C246.853 34.7286 245.371 32.0006 245.371 28.944Z" fill="#9B9BA0"/>
<path fill-rule="evenodd" clip-rule="evenodd" d="M31.0789 84.0789L33.844 86.844L41.8316 78.8562H43.1439V80.1688L35.1563 88.1563L37.9211 90.9211H31.0789V84.0789ZM30.151 81.8383V77.9282H41.4469L42.3751 77L41.4471 76.0721H30.151V72.1617L25.3126 77L30.151 81.8383ZM31.0789 82.7663V78.8562H40.519L33.844 85.5314L31.0789 82.7663ZM30.151 70.849L24 77L30.151 83.151V91.8497H38.8497L45 98L51.1503 91.8497H59.8494V83.1508L66 77L59.8494 70.8494V62.1509H51.1507L45 56L38.8493 62.1509H30.151V70.849ZM31.0789 69.9211V63.0791H37.9211L35.1563 65.844L43.1439 73.8315V75.1441H41.8317L33.8437 67.1563L31.0789 69.9211ZM31.0789 71.2337L33.8437 68.4689L40.5191 75.1441H31.0789V71.2337ZM42.7597 76.0721L43.6877 77L42.7595 77.9282H44.0721V79.2405L45 78.3126L45.9283 79.2409V77.9282H47.2408L46.3126 77L47.2406 76.0721H45.9283V74.7594L45 75.6877L44.0721 74.7598V76.0721H42.7597ZM44.0721 73.4472L45 74.3751L45.9283 73.4468V62.1509H49.8383L45 57.3126L40.1619 62.1509H44.0721V73.4472ZM39.2337 63.0791L36.4689 65.844L43.1439 72.5189V63.0791H39.2337ZM50.7665 63.0791H46.8562V72.5189L53.5314 65.844L50.7665 63.0791ZM46.8562 73.8315V75.1441H48.1685L56.1563 67.1563L58.9212 69.9212V63.0791H52.0789L54.8437 65.844L46.8562 73.8315ZM58.9212 71.2338L56.1563 68.4689L49.4809 75.1441H58.9212V71.2338ZM48.5529 76.0721L47.6249 77L48.5532 77.9282H59.8494V81.8382L64.6874 77L59.8494 72.162V76.0721H48.5529ZM58.9212 82.7664V78.8562H49.4811L56.1563 85.5314L58.9212 82.7664ZM48.1687 78.8562H46.8562V80.1688L54.8437 88.1563L52.0789 90.9211H58.9212V84.079L56.1563 86.844L48.1687 78.8562ZM50.7665 90.9211L53.5314 88.1563L46.8562 81.4814V90.9211H50.7665ZM45.9283 80.5534L45 79.6252L44.0721 80.5531V91.8497H40.1623L45 96.6874L49.8379 91.8497H45.9283V80.5534ZM39.2337 90.9211H43.1439V81.4814L36.4689 88.1563L39.2337 90.9211Z" fill="#9B9BA0"/>
<path fill-rule="evenodd" clip-rule="evenodd" d="M164.451 0.0874325C164.069 0.107366 163.682 0.127529 163.376 0.239902L163.051 0.195674C163.566 0.129228 164.085 0.0908826 164.608 0.0523451C164.833 0.0356933 165.059 0.0190058 165.286 0C165.035 0.0569066 164.744 0.0721015 164.451 0.0874325ZM176.945 23.2398C177.231 22.5193 177.469 21.9188 177.433 20.9327L177.027 21.7868C177.438 20.5422 177.402 19.2214 177.367 17.9642C177.352 17.3989 177.337 16.8464 177.363 16.3196L177.197 16.2749C177.051 12.0018 173.358 7.46019 170.07 5.92384C167.237 4.61488 162.875 4.39061 160.86 5.37658C160.979 5.27046 161.254 5.19093 161.5 5.11955C161.824 5.02565 162.099 4.94586 161.91 4.83825C160.091 5.01896 159.555 5.35675 158.964 5.72881C158.529 6.00244 158.065 6.2946 157.04 6.55643C156.707 6.87789 157.196 6.74738 157.589 6.64248C157.979 6.53832 158.275 6.45941 157.577 6.87317C157.236 6.96741 156.942 6.99633 156.66 7.02414C155.87 7.10194 155.169 7.171 153.753 8.63647C153.83 8.7606 154.083 8.60909 154.26 8.50303C154.478 8.37244 154.581 8.31076 154.098 8.91747C152.292 8.69321 148.391 13.0508 147.562 14.4955L147.996 14.5701C147.694 15.3268 147.351 15.967 147.047 16.5349C146.636 17.3043 146.295 17.9411 146.222 18.5551C146.183 19.1152 146.11 19.7738 146.033 20.4775L146.033 20.4776C145.747 23.0714 145.393 26.2793 146.395 27.4368L146.271 28.6654C146.327 28.7764 146.378 28.8882 146.429 28.9994L146.429 28.9995C146.539 29.2374 146.647 29.4732 146.795 29.696L146.512 29.7188C147.176 31.8149 147.535 31.8496 147.945 31.8892C148.36 31.9293 148.827 31.9744 149.717 34.1836C149.461 34.0973 149.202 34.0031 148.828 33.4987C148.784 33.8833 149.372 35.0377 150.072 35.9384L149.776 36.277C150.075 36.8196 150.355 37.0373 150.592 37.2207C150.664 37.2765 150.732 37.3291 150.795 37.3867C149.667 36.7713 151.099 38.6827 151.917 39.7755L151.917 39.7756L151.918 39.7757C152.155 40.0924 152.34 40.3403 152.397 40.438L152.621 40.0399C152.589 40.6122 153.031 41.3511 153.862 42.3764L154.554 42.3492C154.839 42.9125 155.881 43.9302 156.513 43.978L156.093 44.527C156.861 44.7704 157.066 44.9344 157.295 45.1171C157.538 45.3118 157.808 45.5278 158.814 45.8838L158.42 45.1882C158.75 45.4742 159.004 45.7483 159.248 46.0111L159.248 46.0111C159.739 46.5414 160.188 47.0254 161.127 47.4675C162.19 47.8382 162.75 47.9263 163.364 48.023C163.875 48.1034 164.423 48.1897 165.33 48.449C165.115 48.4428 164.896 48.4376 164.674 48.4324L164.673 48.4324C163.142 48.3965 161.475 48.3574 160.306 47.9393C151.172 45.4652 142.815 34.7496 143.426 23.7132C143.367 22.7722 143.397 21.7324 143.424 20.8023C143.461 19.5236 143.492 18.4522 143.276 18.1302L143.373 17.815C143.874 16.1756 144.477 14.2061 145.62 11.8892C145.615 11.8795 145.611 11.8725 145.608 11.8679L145.608 11.8679C145.605 11.8629 145.604 11.8607 145.604 11.8605C145.605 11.8603 145.606 11.8616 145.608 11.8639C145.644 11.8997 145.929 12.1868 146.439 11.3183C146.562 11.0467 146.679 10.7661 146.796 10.4831C147.034 9.90742 147.276 9.32233 147.593 8.78524L147.836 8.7285C148.001 7.77355 149.449 6.4742 150.651 5.39512L150.651 5.39512C151.228 4.87697 151.749 4.40961 152.044 4.05555L152.107 4.47236C153.722 2.95816 156.364 1.85035 158.365 1.01163C158.823 0.819954 159.247 0.642334 159.617 0.477128C159.293 0.836002 159.821 0.72747 160.56 0.575618C161.013 0.482672 161.544 0.373496 162.008 0.345339C161.884 0.414796 161.76 0.47928 161.637 0.543273L161.637 0.543285C161.379 0.677679 161.125 0.80991 160.88 0.981503C161.666 0.794161 162.01 0.848854 162.39 0.909421C162.72 0.9618 163.077 1.01857 163.771 0.927C163.246 1.00339 162.608 1.21158 162.71 1.2911C163.454 1.37728 163.917 1.28462 164.339 1.20037C164.866 1.09509 165.327 1.00294 166.187 1.28931L166.089 0.83229C166.801 1.08934 167.326 1.24684 167.795 1.38751C168.744 1.67174 169.463 1.88721 171.026 2.71621C171.327 2.73078 171.528 2.66683 171.724 2.60476C172.062 2.49745 172.382 2.39576 173.168 2.71532C173.211 2.79177 173.236 2.85576 173.259 2.91645C173.35 3.15967 173.422 3.34967 174.64 4.07476C174.808 4.00801 174.347 3.5861 173.975 3.24528L173.974 3.24526L173.974 3.24524L173.963 3.23444C177.022 4.87041 180.348 8.35681 181.363 12.088C180.793 11.0373 180.872 11.5697 180.955 12.1334C181.011 12.5089 181.069 12.8983 180.939 12.8435C181.362 13.9849 181.708 15.1648 181.923 16.3826C181.901 16.3043 181.877 16.2175 181.851 16.123C181.543 15.0112 180.945 12.8503 179.955 11.4161C179.919 11.8299 179.678 11.7851 179.456 11.7439C179.14 11.6851 178.863 11.6338 179.28 12.9333C179.527 13.2913 179.571 13.1557 179.61 13.0362C179.656 12.8946 179.694 12.7758 180.055 13.5306C180.062 13.9343 180.158 14.3366 180.266 14.7848C180.334 15.0706 180.408 15.3751 180.465 15.7107C180.363 15.6939 180.251 15.5023 180.143 15.3179C180.009 15.0893 179.882 14.8719 179.789 15.0129C180.02 16.0967 180.4 16.6618 180.545 16.7449C180.52 16.8046 180.483 16.8066 180.444 16.8088C180.363 16.8133 180.274 16.8182 180.265 17.3127C180.333 18.6097 180.575 18.4973 180.767 18.4083C180.826 18.3808 180.88 18.3555 180.923 18.3746C180.871 18.6089 180.775 18.8549 180.672 19.1193L180.672 19.1193C180.41 19.7882 180.102 20.5748 180.349 21.5887C180.272 21.2889 180.15 20.9879 180.031 20.6954L180.03 20.6953L180.03 20.6952L180.03 20.6952C179.982 20.5763 179.934 20.4588 179.89 20.3434C179.836 20.7991 179.86 21.1185 179.882 21.4162C179.919 21.9199 179.951 22.3615 179.595 23.2959C180.004 21.9557 179.959 20.7464 179.574 21.3289C179.667 22.3669 179.211 23.2735 178.807 24.0786C178.469 24.7511 178.166 25.3528 178.249 25.9009L177.761 25.229C177.042 26.2713 177.097 26.4915 177.151 26.7096C177.196 26.8923 177.241 27.0735 176.831 27.7348C176.987 27.4643 176.956 27.3976 176.926 27.3332C176.893 27.2619 176.862 27.1935 177.087 26.8543C176.932 26.8632 176.571 27.2199 176.129 27.6565C175.756 28.0243 175.326 28.4489 174.913 28.7704C171.364 31.6157 167.126 31.9874 163.024 30.455L163.022 30.4571C163.043 30.3614 163.006 30.2549 162.731 30.069C159.254 27.4042 157.198 25.1388 157.912 19.8953C158.119 19.7389 158.267 19.3094 158.443 18.7985C158.717 18.0023 159.059 17.0083 159.8 16.5416C160.542 14.903 162.764 13.3934 165.139 13.3559C167.564 13.2223 169.61 14.6497 170.638 15.9961C168.767 14.2521 165.704 13.7213 163.091 15.0146C160.42 16.2159 158.836 19.1582 159.067 22.0875C159.099 22.0405 159.13 22.018 159.159 21.997C159.219 21.9527 159.27 21.9154 159.302 21.6702C159.221 27.3636 165.437 31.5361 169.913 29.4306L169.966 29.5486C171.169 29.2205 171.471 28.9306 171.884 28.5351C172.094 28.3338 172.333 28.1052 172.733 27.8304C172.702 27.893 172.606 27.9875 172.505 28.0866C172.298 28.2899 172.072 28.5125 172.355 28.5188C172.855 28.3862 174.274 27.1102 175.221 26.2588L175.221 26.2587L175.221 26.2587C175.368 26.1269 175.503 26.0052 175.622 25.8996C175.81 25.4938 175.778 25.362 175.745 25.2282C175.707 25.0729 175.668 24.915 175.973 24.3226L176.667 23.9759C176.76 23.7079 176.855 23.4678 176.945 23.2399L176.945 23.2398ZM163.022 30.4571C163.008 30.4693 163.004 30.486 163.006 30.5065C163.012 30.4901 163.018 30.4738 163.022 30.4571ZM163.006 30.5065C163.031 30.7148 163.819 31.3174 164.414 31.6233C165.976 32.2009 167.743 32.2237 169.134 32.1723C166.128 33.4295 160.388 30.8955 158.51 27.5338C158.681 27.5708 159.017 27.9581 159.428 28.4326C160.043 29.1413 160.827 30.0446 161.479 30.2656C160.836 29.7496 160.337 29.0929 159.876 28.4174C160.746 29.4172 161.804 30.2339 162.959 30.7749C162.933 30.6782 162.963 30.6082 162.991 30.5429L163 30.5226L163.006 30.5065ZM163.445 0.664098L163.445 0.664093C163.369 0.651391 163.292 0.63847 163.217 0.624999C164.648 0.665653 164.542 0.760363 164.073 0.863114C164.13 0.778746 163.802 0.72385 163.445 0.664098ZM164.073 0.863114L164.073 0.863113L164.052 0.900639L163.77 0.925657L164.073 0.863114ZM172.16 20.3845C172.257 18.9388 171.876 19.3959 171.748 19.9476C171.803 19.9766 171.855 20.1262 171.905 20.2719C171.989 20.516 172.07 20.7491 172.16 20.3845ZM171.519 22.394C171.396 23.1409 171.048 23.8633 170.57 24.5231C170.589 24.3379 170.454 24.2998 170.319 24.2619C170.04 24.1835 169.763 24.1058 170.85 22.738C170.805 22.9225 170.633 23.2042 170.471 23.4695C170.13 24.0267 169.834 24.5115 170.851 23.8713C170.885 23.8115 170.918 23.752 170.952 23.6927L170.952 23.6926L170.952 23.6925L170.952 23.6925C171.192 23.2715 171.425 22.8607 171.519 22.394ZM167.461 26.1721C166.413 26.0108 165.458 25.6083 166.261 25.5971C166.93 25.6583 167.595 25.6548 168.247 25.4948C168.013 25.7173 167.751 25.946 167.461 26.1721ZM157.499 26.6992L157.386 27.2621C157.529 27.4566 157.664 27.6554 157.799 27.8531C158.16 28.3841 158.515 28.9072 159.006 29.3154C158.779 28.8715 158.579 28.5499 158.362 28.2014L158.362 28.2014L158.362 28.2014C158.117 27.807 157.85 27.3783 157.499 26.6992ZM158.184 25.7359L158.184 25.7359C158.344 26.0601 158.501 26.3794 158.746 26.6501L158.993 27.3783C158.955 27.314 158.916 27.2498 158.878 27.1856C158.576 26.6819 158.273 26.1766 158.117 25.5994C158.139 25.6448 158.162 25.6902 158.184 25.7356L158.184 25.7357L158.184 25.7358L158.184 25.7359ZM180.817 21.853L180.699 22.1487C180.483 23.6846 180.016 25.2044 179.3 26.6135C180.091 25.1267 180.603 23.5006 180.817 21.853ZM144.32 10.373C144.322 10.3961 144.324 10.419 144.326 10.4415C144.322 10.4228 144.319 10.4002 144.32 10.373ZM144.326 10.4415C144.352 10.5511 144.455 10.5248 144.554 10.4999C144.734 10.4541 144.898 10.4125 144.54 11.2169C144.317 11.3732 144.181 11.4787 144.105 11.5376C144.051 11.5793 144.027 11.5977 144.024 11.5944C144.021 11.5918 144.031 11.5756 144.049 11.5464C144.129 11.4154 144.368 11.0241 144.326 10.4415ZM143.36 14.4124C143.295 14.7627 143.222 15.1639 143.037 15.7321C143.059 15.5496 143.04 15.4049 143.022 15.2673C142.981 14.9495 142.945 14.6699 143.43 14.0497C143.404 14.1676 143.383 14.2867 143.36 14.4124Z" fill="#9B9BA0"/>
<path fill-rule="evenodd" clip-rule="evenodd" d="M124.584 102.584V122.236H127.623L127.642 122.221H153.278L153.28 102.584H150.9H150.832H124.584ZM153.96 100H153.96C154.98 100 156 100.952 156 101.904L155.998 122.901C155.998 123.921 154.978 124.805 153.958 124.805H124.602L124.584 124.82H123.836C122.816 124.82 122 123.936 122 122.916V101.904C122 101.36 122.272 100.816 122.68 100.476C123.02 100.204 123.428 100 123.836 100H153.96ZM144.032 124.82H143.216H135.192H134.784C135.872 128.764 134.376 129.308 127.848 129.308V131.348H136.144H142.196H150.016V129.308C143.556 129.308 142.944 128.764 144.032 124.82ZM134.262 115.134C134.71 114.798 134.934 114.294 134.934 113.678C134.934 113.231 134.822 112.895 134.654 112.671C134.374 112.335 133.926 112.055 133.31 111.775C132.862 111.551 132.582 111.383 132.47 111.271C132.302 111.159 132.246 110.991 132.246 110.767C132.246 110.543 132.302 110.375 132.47 110.263C132.638 110.151 132.862 110.095 133.142 110.095C133.702 110.095 134.206 110.263 134.654 110.543V109.143C134.206 108.975 133.646 108.863 133.03 108.863C132.302 108.863 131.742 109.087 131.294 109.423C130.847 109.759 130.623 110.207 130.623 110.823C130.623 111.607 131.126 112.279 132.134 112.727C132.638 112.951 132.974 113.119 133.142 113.287C133.31 113.399 133.366 113.566 133.366 113.79C133.366 114.014 133.31 114.182 133.142 114.294C132.974 114.406 132.694 114.462 132.414 114.462C131.798 114.462 131.182 114.238 130.679 113.79V115.246C131.126 115.526 131.686 115.638 132.358 115.638C133.198 115.638 133.814 115.47 134.262 115.134ZM140.029 110.712C140.309 111.104 140.477 111.607 140.477 112.279C140.477 112.951 140.309 113.455 140.085 113.847C139.75 114.239 139.358 114.407 138.854 114.407C138.35 114.407 137.902 114.239 137.622 113.847C137.342 113.455 137.174 112.895 137.174 112.279C137.174 111.607 137.286 111.104 137.622 110.712C137.902 110.32 138.35 110.152 138.854 110.152C139.358 110.152 139.75 110.32 140.029 110.712ZM141.541 114.239C141.877 113.679 142.045 113.007 142.045 112.223C142.045 111.551 141.933 110.992 141.709 110.432C141.429 109.928 141.093 109.536 140.589 109.256C140.141 108.976 139.582 108.864 138.966 108.864C138.294 108.864 137.734 109.032 137.23 109.312C136.726 109.592 136.334 109.984 136.054 110.544C135.774 111.104 135.662 111.719 135.662 112.391C135.662 113.007 135.774 113.567 136.054 114.071C136.278 114.575 136.67 114.967 137.118 115.247C137.566 115.527 138.126 115.695 138.686 115.695L140.029 117.206H141.933L140.029 115.415C140.701 115.191 141.205 114.799 141.541 114.239ZM147.084 115.526H143.109V108.975H144.62V114.35H147.084V115.526Z" fill="#9B9BA0"/>
<path fill-rule="evenodd" clip-rule="evenodd" d="M90 63.0241C90 52.534 98.5227 44 109.001 44C119.476 44 128 52.534 128 63.0241C128 73.5149 119.477 82.0486 109.001 82.0486C98.5229 82.0486 90 73.5149 90 63.0241ZM102.418 57.4407C103.354 50.6391 105.945 45.7456 109.001 45.7456C118.53 45.7456 126.257 53.4809 126.257 63.0243C126.257 65.1831 122.106 67.0402 116.138 67.8794C115.981 67.9023 115.826 67.9242 115.668 67.9445C114.235 68.1303 112.704 68.2562 111.104 68.316C110.415 68.3417 109.712 68.3572 109.001 68.3572C108.288 68.3572 107.587 68.342 106.896 68.316C105.298 68.2562 103.766 68.1303 102.334 67.9445C102.206 66.874 102.119 65.7602 102.076 64.6144C102.055 64.0915 102.045 63.5605 102.045 63.0241C102.045 62.4874 102.055 61.9574 102.076 61.4332C102.119 60.2874 102.206 59.1744 102.334 58.1039C102.359 57.8809 102.388 57.6596 102.418 57.4407Z" fill="#9B9BA0"/>
<path fill-rule="evenodd" clip-rule="evenodd" d="M102.418 57.4408C103.354 50.6391 105.945 45.7456 109.001 45.7456C118.53 45.7456 126.257 53.4809 126.257 63.0243C126.257 65.1832 122.106 67.0402 116.138 67.8794C115.981 67.9023 115.826 67.9242 115.668 67.9445C114.234 68.1303 112.704 68.2563 111.104 68.3161C110.415 68.3418 109.712 68.3573 109.001 68.3573C108.288 68.3573 107.587 68.342 106.896 68.3161C105.298 68.2563 103.766 68.1303 102.334 67.9445C102.206 66.874 102.119 65.7603 102.076 64.6145C102.055 64.0915 102.045 63.5605 102.045 63.0241C102.045 62.4874 102.055 61.9574 102.076 61.4332C102.119 60.2874 102.206 59.1744 102.334 58.1039C102.359 57.881 102.388 57.6596 102.418 57.4408ZM115.582 57.4408C115.78 57.6735 115.966 57.9164 116.139 58.1685H116.138C117.079 59.5525 117.627 61.2243 117.627 63.0243C117.627 63.6208 116.995 64.1719 115.926 64.6147C114.844 65.0636 113.316 65.4045 111.546 65.5725C110.741 65.6491 109.887 65.69 109.001 65.69C108.114 65.69 107.26 65.6488 106.455 65.5725C106.379 64.7676 106.338 63.9106 106.338 63.0241C106.338 62.1378 106.379 61.281 106.455 60.4752C106.552 59.4701 106.702 58.5438 106.896 57.7321C107.384 55.6959 108.146 54.3847 109.001 54.3847C111.64 54.3847 113.999 55.5723 115.582 57.4408Z" fill="#CDCDD0"/>
<path fill-rule="evenodd" clip-rule="evenodd" d="M214.35 71.0186C217.241 71.0186 221.425 70.4276 221.425 67.0176C221.434 66.7547 221.41 66.491 221.353 66.2336L219.631 58.8178C219.234 57.1861 218.885 56.4458 215.995 55.0136C213.753 53.877 208.869 52 207.424 52C206.079 52 205.688 53.7189 204.084 53.7189C202.54 53.7189 201.393 52.4356 199.949 52.4356C198.562 52.4356 197.658 53.3728 196.96 55.3004C196.96 55.3004 195.016 60.7362 194.767 61.5245C194.727 61.6694 194.71 61.8193 194.716 61.9689C194.716 64.0817 203.107 71.0095 214.35 71.0095L214.35 71.0186ZM221.869 68.4014C222.269 70.2783 222.269 70.4752 222.269 70.7227C222.269 73.9311 218.631 75.7116 213.848 75.7116C203.039 75.7186 193.571 69.4394 193.571 65.2891C193.57 64.7112 193.689 64.1396 193.92 63.6094C190.032 63.8019 185 64.4894 185 68.8942C185 76.1083 202.242 85 215.894 85C226.36 85 229 80.3067 229 76.6011C229 73.6861 226.457 70.377 221.873 68.4014" fill="#9B9BA0"/>
<path d="M231.584 117.762C231.3 117.459 230.833 117.459 230.55 117.762C230.231 118.09 230.269 118.657 230.664 118.929C230.906 119.094 231.228 119.094 231.469 118.929C231.863 118.657 231.902 118.09 231.584 117.762ZM230.638 115.19C228.684 114.717 226.928 116.533 227.387 118.552C227.619 119.58 228.41 120.397 229.406 120.638C231.36 121.113 233.118 119.296 232.657 117.275C232.423 116.247 231.633 115.431 230.638 115.19ZM217.733 126.566C216.459 126.079 215.967 126.177 214.338 126.2C213.21 126.215 213.169 126.175 211.88 126.175C211.482 126.175 211.336 128.147 212.776 128.557C213.406 128.736 214.087 128.849 214.561 129.35C214.772 129.571 214.889 129.906 214.404 129.906H210.829C210.204 129.906 209.613 129.921 209.135 129.502C208.413 128.872 208.076 128.004 207.715 127.143C207.34 126.248 206.936 125.366 206.461 124.523C205.517 122.845 204.268 121.328 202.594 120.401C200.503 119.241 196.955 118.667 194.146 120.897C191.185 123.247 191.819 127.649 194.409 129.803C195.431 130.654 196.765 131.009 198.075 130.929C200.637 130.776 202.526 128.825 202.056 126.423C201.9 125.62 201.446 124.859 200.763 124.444C200.277 124.15 199.701 124.046 199.139 124.045C198.534 124.043 197.89 124.172 197.455 124.607C196.941 125.122 196.858 126.032 197.269 126.638C197.496 126.974 197.867 127.258 197.804 127.695C197.761 127.991 197.525 128.211 197.243 128.277C196.762 128.387 196.322 128.104 195.998 127.759C195.166 126.873 194.905 125.462 195.364 124.321C195.962 122.826 197.628 122.004 199.192 122.058C201.208 122.128 203.108 123.502 203.934 125.404C204.761 127.308 204.514 129.643 203.374 131.364C200.843 135.189 194.591 134.738 191.686 131.512C189.864 129.488 188.874 127.525 189.013 123.868C189.11 121.284 190.553 118.739 192.391 116.948C195.387 114.03 199.333 112.034 203.348 111.174C205.786 110.653 208.303 110.531 210.778 110.786C212.961 111.01 215.13 111.424 217.228 112.095C218.27 112.43 219.294 112.829 220.285 113.299C221.159 113.714 222.304 114.166 222.984 114.882C222.984 113.585 222.935 112.16 222.935 111.168C222.935 110.789 223.32 110.533 223.65 110.695C225.07 111.376 228.433 113.019 230.675 114.079C233.681 115.498 233.894 118.848 233.999 121.817C234.001 121.884 234.004 121.952 233.975 122.011C233.881 122.215 233.374 122.159 233.188 122.162C232.829 122.165 232.287 122.163 231.927 122.18C231.21 122.212 230.511 122.199 229.793 122.162C228.466 122.095 227.184 121.484 226.325 120.741C226.239 120.666 225.962 120.585 225.831 120.725C225.695 120.87 225.742 121.096 225.815 121.173C226.308 121.687 226.842 122.02 227.463 122.351C228.253 122.77 229.113 122.877 229.986 122.929C230.921 122.986 231.862 122.971 232.794 122.873C233.573 122.791 233.774 122.735 233.006 123.325C232.331 123.844 231.548 124.217 230.754 124.493C229.615 124.894 228.412 125.091 227.212 125.126C226.484 125.146 225.756 125.107 225.034 125.01C224.66 124.962 224.289 124.892 223.914 124.852C223.61 124.82 223.294 124.762 222.991 124.83C222.716 124.892 222.462 125.046 222.288 125.278C222.051 125.598 221.969 126.478 222.106 126.86C222.371 127.599 222.954 128.028 223.569 128.407C224.236 128.817 225.113 128.957 225.284 129.741C225.319 129.904 223.901 129.909 223.741 129.906H221.854C221.854 129.906 220.829 129.931 220.43 129.781C220.417 129.777 220.407 129.771 220.394 129.765C220.177 129.644 220.083 129.344 220.009 129.116C219.904 128.795 219.719 128.475 219.495 128.143C219.069 127.514 218.414 126.826 217.733 126.566ZM232.017 117.913C232.017 119.056 231.122 119.982 230.016 119.982C228.912 119.982 228.016 119.056 228.016 117.913C228.016 116.771 228.912 115.846 230.016 115.846C231.122 115.846 232.017 116.771 232.017 117.913Z" fill="#9B9BA0"/>
<defs>
<linearGradient id="paint0_linear" x1="36.4082" y1="112.84" x2="36.4082" y2="148.84" gradientUnits="userSpaceOnUse">
<stop stop-color="#CDCDD0"/>
<stop offset="1" stop-color="#9B9BA0"/>
</linearGradient>
</defs>
</svg>
